<?xml version="1.0" encoding="utf-8"?>
<!-- Generator: Adobe Illustrator 16.0.0, SVG Export Plug-In . SVG Version: 6.00 Build 0)  -->
<!DOCTYPE svg PUBLIC "-//W3C//DTD SVG 1.1//EN" "http://www.w3.org/Graphics/SVG/1.1/DTD/svg11.dtd">
<svg version="1.1" id="Layer_1" xmlns="http://www.w3.org/2000/svg" xmlns:xlink="http://www.w3.org/1999/xlink" x="0px" y="0px"
	 width="100px" height="100px" viewBox="0 0 100 100" enable-background="new 0 0 100 100" xml:space="preserve">
<path fill="#FC441B" d="M50,80.77c-16.994,0-30.769-13.776-30.769-30.77c0-16.994,13.775-30.77,30.769-30.77
	c16.994,0,30.77,13.776,30.77,30.77C80.77,66.993,66.994,80.77,50,80.77z M50,0C22.386,0,0,22.386,0,50s22.386,50,50,50h50V50
	C100,22.386,77.614,0,50,0z M54.598,35.755c-3.062-0.988-6.21-0.937-9.064-0.042L50,50l-14.245-4.598
	c-2.539,7.867,1.78,16.303,9.647,18.842s16.303-1.779,18.842-9.646C66.783,46.731,62.465,38.295,54.598,35.755z"/>
</svg>
