<?xml version="1.0" encoding="utf-8"?>
<!-- Generator: Adobe Illustrator 16.0.0, SVG Export Plug-In . SVG Version: 6.00 Build 0)  -->
<!DOCTYPE svg PUBLIC "-//W3C//DTD SVG 1.1//EN" "http://www.w3.org/Graphics/SVG/1.1/DTD/svg11.dtd">
<svg version="1.1" id="Layer_1" xmlns="http://www.w3.org/2000/svg" xmlns:xlink="http://www.w3.org/1999/xlink" x="0px" y="0px"
	 width="32px" height="32px" viewBox="0 0 32 32" enable-background="new 0 0 32 32" xml:space="preserve">
<path fill="#231F20" d="M19.281,5.631H5.546l2.227-2.23c0.565-0.567,0.565-1.484-0.002-2.05C7.206,0.786,6.29,0.789,5.722,1.352
	L0,7.081l5.727,5.727c0.282,0.284,0.651,0.424,1.022,0.424c0.372,0,0.743-0.141,1.026-0.424c0.565-0.565,0.565-1.482,0-2.049
	l-2.23-2.23h13.737c5.414,0,9.822,4.407,9.822,9.824c0,5.415-4.408,9.821-9.822,9.821h-5.983c-0.803,0-1.45,0.648-1.45,1.449
	s0.647,1.448,1.45,1.448h5.983C26.293,31.071,32,25.365,32,18.353C32,11.337,26.293,5.631,19.281,5.631z"/>
</svg>
