<?xml version="1.0" encoding="utf-8"?>
<!-- Generator: Adobe Illustrator 16.0.0, SVG Export Plug-In . SVG Version: 6.00 Build 0)  -->
<!DOCTYPE svg PUBLIC "-//W3C//DTD SVG 1.1//EN" "http://www.w3.org/Graphics/SVG/1.1/DTD/svg11.dtd">
<svg version="1.1" id="Layer_1" xmlns="http://www.w3.org/2000/svg" xmlns:xlink="http://www.w3.org/1999/xlink" x="0px" y="0px"
	 width="32px" height="32px" viewBox="0 0 32 32" enable-background="new 0 0 32 32" xml:space="preserve">
<path fill="#231F20" d="M18.811,16L31.42,3.392c0.774-0.775,0.774-2.034,0-2.808c-0.775-0.777-2.034-0.777-2.809,0L16,13.192
	L3.389,0.586c-0.774-0.777-2.033-0.777-2.809,0c-0.774,0.775-0.774,2.034,0,2.808L13.189,16L0.58,28.612
	c-0.774,0.774-0.774,2.03,0,2.808C0.967,31.809,1.476,32,1.984,32s1.019-0.191,1.404-0.58L16,18.812l12.611,12.605
	c0.386,0.389,0.896,0.58,1.404,0.58s1.018-0.191,1.404-0.58c0.774-0.777,0.774-2.033,0-2.808L18.811,16z"/>
</svg>
