<?xml version="1.0" encoding="utf-8"?>
<!-- Generator: Adobe Illustrator 16.0.0, SVG Export Plug-In . SVG Version: 6.00 Build 0)  -->
<!DOCTYPE svg PUBLIC "-//W3C//DTD SVG 1.1//EN" "http://www.w3.org/Graphics/SVG/1.1/DTD/svg11.dtd">
<svg version="1.1" id="Layer_1" xmlns="http://www.w3.org/2000/svg" xmlns:xlink="http://www.w3.org/1999/xlink" x="0px" y="0px"
	 width="32px" height="32px" viewBox="0 0 32 32" enable-background="new 0 0 32 32" xml:space="preserve">
<path fill="#231F20" d="M30.544,14.544l-13.087-0.001L17.455,1.457C17.455,0.652,16.803,0,15.997,0s-1.456,0.653-1.456,1.457v13.086
	L1.454,14.542c-0.804,0-1.456,0.652-1.456,1.457c0,0.804,0.65,1.457,1.456,1.457l13.089,0.001l0.002,13.086
	c0,0.806,0.652,1.457,1.456,1.457c0.806,0,1.458-0.652,1.458-1.457l-0.002-13.086l13.087,0.001c0.806,0,1.458-0.652,1.458-1.457
	C32.002,15.197,31.35,14.544,30.544,14.544z"/>
</svg>
