<?xml version="1.0" encoding="utf-8"?>
<!-- Generator: Adobe Illustrator 16.0.0, SVG Export Plug-In . SVG Version: 6.00 Build 0)  -->
<!DOCTYPE svg PUBLIC "-//W3C//DTD SVG 1.1//EN" "http://www.w3.org/Graphics/SVG/1.1/DTD/svg11.dtd">
<svg version="1.1" id="Layer_1" xmlns="http://www.w3.org/2000/svg" xmlns:xlink="http://www.w3.org/1999/xlink" x="0px" y="0px"
	 width="32px" height="32px" viewBox="0 0 32 32" enable-background="new 0 0 32 32" xml:space="preserve">
<path fill="#231F20" d="M26.277,1.352c-0.566-0.564-1.482-0.567-2.049-0.001c-0.566,0.566-0.566,1.482-0.002,2.05l2.227,2.23H12.718
	C5.706,5.631,0,11.337,0,18.353c0,7.014,5.706,12.72,12.719,12.72h5.983c0.803,0,1.449-0.648,1.449-1.449s-0.646-1.448-1.449-1.448
	h-5.983c-5.415,0-9.822-4.407-9.822-9.822c0-5.417,4.407-9.824,9.822-9.824h13.737l-2.23,2.23c-0.564,0.566-0.564,1.484,0,2.049
	c0.283,0.284,0.654,0.424,1.025,0.424c0.373,0,0.742-0.141,1.023-0.424L32,7.081L26.277,1.352z"/>
</svg>
