<?xml version="1.0" encoding="utf-8"?>
<!-- Generator: Adobe Illustrator 16.0.0, SVG Export Plug-In . SVG Version: 6.00 Build 0)  -->
<!DOCTYPE svg PUBLIC "-//W3C//DTD SVG 1.1//EN" "http://www.w3.org/Graphics/SVG/1.1/DTD/svg11.dtd">
<svg version="1.1" id="Layer_1" xmlns="http://www.w3.org/2000/svg" xmlns:xlink="http://www.w3.org/1999/xlink" x="0px" y="0px"
	 width="32px" height="32px" viewBox="0 0 32 32" enable-background="new 0 0 32 32" xml:space="preserve">
<g>
	<path fill="#231F20" d="M1.457,29.793c-0.807,0-1.458-0.653-1.458-1.458c0-0.806,0.655-1.456,1.458-1.456l29.086,0.002
		c0.803,0,1.459,0.652,1.459,1.456c0,0.805-0.656,1.458-1.459,1.458L1.457,29.793z"/>
	<path fill="#231F20" d="M1.457,17.455c-0.807,0-1.458-0.653-1.458-1.456c0-0.806,0.655-1.458,1.458-1.458l29.086,0.002
		c0.803,0,1.459,0.652,1.459,1.458c0,0.805-0.656,1.456-1.459,1.456L1.457,17.455z"/>
	<path fill="#231F20" d="M1.457,5.119c-0.807,0-1.458-0.653-1.458-1.458c0-0.806,0.655-1.456,1.458-1.456l29.086,0.002
		c0.803,0,1.459,0.652,1.459,1.456c0,0.805-0.656,1.458-1.459,1.458L1.457,5.119z"/>
</g>
</svg>
