<?xml version="1.0" encoding="utf-8"?>
<!-- Generator: Adobe Illustrator 16.0.0, SVG Export Plug-In . SVG Version: 6.00 Build 0)  -->
<!DOCTYPE svg PUBLIC "-//W3C//DTD SVG 1.1//EN" "http://www.w3.org/Graphics/SVG/1.1/DTD/svg11.dtd">
<svg version="1.1" id="Layer_1" xmlns="http://www.w3.org/2000/svg" xmlns:xlink="http://www.w3.org/1999/xlink" x="0px" y="0px"
	 width="595.28px" height="841.89px" viewBox="0 0 595.28 841.89" enable-background="new 0 0 595.28 841.89" xml:space="preserve">
<g>
	<path fill="#231F20" d="M32.942,36.217c-0.181,0-0.363-0.069-0.501-0.208l-5.502-5.5l5.502-5.501c0.276-0.277,0.726-0.277,1.002,0
		c0.277,0.277,0.277,0.726,0,1.002l-4.5,4.5l4.5,4.499c0.277,0.276,0.277,0.725,0,1.002C33.305,36.148,33.123,36.217,32.942,36.217z
		"/>
</g>
<g>
	<path fill="#231F20" d="M53.438,36.217c-0.181,0-0.363-0.069-0.501-0.208c-0.277-0.277-0.277-0.726,0-1.002l4.5-4.5l-4.5-4.499
		c-0.277-0.276-0.277-0.725,0-1.002c0.276-0.277,0.726-0.277,1.002,0l5.502,5.5l-5.502,5.501
		C53.8,36.148,53.619,36.217,53.438,36.217z"/>
</g>
<path fill="#231F20" d="M108.667,30.509l4.5-4.499c0.277-0.276,0.277-0.726,0-1.002c-0.276-0.277-0.726-0.277-1.002,0l-4.5,4.499
	l-4.5-4.498c-0.276-0.277-0.726-0.277-1.002,0c-0.277,0.276-0.277,0.726,0,1.002l4.5,4.498l-4.5,4.5
	c-0.277,0.276-0.277,0.725,0,1.002c0.138,0.139,0.32,0.207,0.501,0.207s0.363-0.068,0.501-0.207l4.5-4.499l4.5,4.498
	c0.138,0.139,0.32,0.207,0.501,0.207s0.363-0.068,0.501-0.207c0.277-0.277,0.277-0.726,0-1.002L108.667,30.509z"/>
<path fill="#231F20" d="M140.527,29.8h-6.363l-0.001-6.363c0-0.392-0.317-0.708-0.709-0.708s-0.708,0.317-0.708,0.708V29.8
	l-6.363-0.001c-0.391,0-0.708,0.317-0.708,0.709c0,0.391,0.316,0.708,0.708,0.708l6.364,0.001l0.001,6.362
	c0,0.392,0.317,0.709,0.708,0.709c0.392,0,0.709-0.317,0.709-0.709l-0.001-6.362h6.363c0.392,0,0.709-0.316,0.709-0.708
	S140.919,29.8,140.527,29.8z"/>
<g>
	<path fill="#231F20" d="M228.63,37.216c-0.392,0-0.708-0.317-0.708-0.709s0.317-0.708,0.708-0.708l14.145,0.001
		c0.392,0,0.709,0.317,0.709,0.708c0,0.392-0.317,0.709-0.709,0.709L228.63,37.216z"/>
	<path fill="#231F20" d="M228.63,31.216c-0.392,0-0.708-0.317-0.708-0.708c0-0.392,0.317-0.709,0.708-0.709l14.145,0.001
		c0.392,0,0.709,0.317,0.709,0.709s-0.317,0.708-0.709,0.708L228.63,31.216z"/>
	<path fill="#231F20" d="M228.63,25.217c-0.392,0-0.708-0.317-0.708-0.709s0.317-0.708,0.708-0.708l14.145,0.001
		c0.392,0,0.709,0.317,0.709,0.708c0,0.392-0.317,0.709-0.709,0.709L228.63,25.217z"/>
</g>
<path fill="#231F20" d="M87.387,30.288c-0.392,0-0.708,0.316-0.708,0.708c0,2.649-2.155,4.805-4.804,4.805
	c-2.648,0-4.804-2.155-4.804-4.805c0-2.648,2.155-4.804,4.804-4.804c0.992,0,1.935,0.306,2.732,0.861l-1.433,0.001
	c-0.391,0-0.708,0.317-0.708,0.709c0,0.391,0.317,0.708,0.708,0.708h0l3.96-0.003l0-3.96c0-0.391-0.317-0.708-0.708-0.708
	c-0.391,0-0.708,0.316-0.708,0.708l0,1.601c-1.092-0.862-2.43-1.334-3.843-1.334c-3.43,0-6.221,2.791-6.221,6.221
	c0,3.431,2.791,6.222,6.221,6.222c3.431,0,6.221-2.791,6.221-6.222C88.096,30.604,87.779,30.288,87.387,30.288z"/>
<path fill="#231F20" d="M160.85,25.438h-6.717l1.089-1.091c0.276-0.277,0.276-0.726,0-1.002c-0.277-0.276-0.725-0.275-1.002,0
	l-2.798,2.802l2.8,2.801c0.138,0.139,0.319,0.208,0.501,0.208c0.181,0,0.363-0.069,0.501-0.208c0.277-0.276,0.277-0.725,0-1.002
	l-1.09-1.091h6.718c2.649,0,4.804,2.155,4.804,4.804c0,2.648-2.155,4.804-4.804,4.804h-2.926c-0.392,0-0.708,0.317-0.708,0.708
	s0.317,0.708,0.708,0.708h2.926c3.43,0,6.221-2.791,6.221-6.221C167.07,28.228,164.28,25.438,160.85,25.438z"/>
<path fill="#231F20" d="M190.062,23.345c-0.277-0.276-0.725-0.277-1.002-0.001c-0.277,0.277-0.277,0.726,0,1.003l1.089,1.091h-6.717
	c-3.43,0-6.221,2.79-6.221,6.221s2.791,6.221,6.221,6.221h2.926c0.392,0,0.708-0.316,0.708-0.708s-0.317-0.709-0.708-0.709h-2.926
	c-2.649,0-4.804-2.155-4.804-4.804s2.155-4.804,4.804-4.804h6.718l-1.09,1.091c-0.277,0.276-0.277,0.726,0,1.002
	c0.138,0.139,0.32,0.207,0.501,0.207c0.182,0,0.363-0.068,0.501-0.207l2.8-2.801L190.062,23.345z"/>
<g>
	<path fill="none" d="M214.677,29.555c0-2.648-2.155-4.804-4.804-4.804s-4.804,2.155-4.804,4.804c0,2.649,2.155,4.804,4.804,4.804
		S214.677,32.205,214.677,29.555z"/>
	<path fill="#231F20" d="M217.792,36.473l-3.053-3.054c0.845-1.062,1.354-2.404,1.354-3.864c0-3.431-2.791-6.221-6.221-6.221
		c-3.43,0-6.221,2.79-6.221,6.221s2.791,6.221,6.221,6.221c1.46,0,2.802-0.509,3.865-1.354l3.053,3.054
		c0.138,0.139,0.32,0.207,0.501,0.207s0.363-0.068,0.501-0.207C218.069,37.198,218.069,36.75,217.792,36.473z M205.069,29.555
		c0-2.648,2.155-4.804,4.804-4.804s4.804,2.155,4.804,4.804c0,2.649-2.155,4.804-4.804,4.804S205.069,32.205,205.069,29.555z"/>
</g>
</svg>
