<?xml version="1.0" encoding="utf-8"?>
<!-- Generator: Adobe Illustrator 16.0.0, SVG Export Plug-In . SVG Version: 6.00 Build 0)  -->
<!DOCTYPE svg PUBLIC "-//W3C//DTD SVG 1.1//EN" "http://www.w3.org/Graphics/SVG/1.1/DTD/svg11.dtd">
<svg version="1.1" id="Layer_1" xmlns="http://www.w3.org/2000/svg" xmlns:xlink="http://www.w3.org/1999/xlink" x="0px" y="0px"
	 width="32px" height="32px" viewBox="0 0 32 32" enable-background="new 0 0 32 32" xml:space="preserve">
<g>
	<path fill="none" d="M24.588,13.874c0-5.907-4.807-10.714-10.714-10.714c-5.909,0-10.716,4.807-10.716,10.714
		c0,5.909,4.807,10.714,10.716,10.714C19.781,24.588,24.588,19.783,24.588,13.874z"/>
	<path fill="#231F20" d="M31.538,29.303l-6.811-6.811c1.884-2.369,3.021-5.362,3.021-8.618C27.749,6.223,21.523,0,13.874,0
		C6.222,0,0,6.223,0,13.874s6.223,13.874,13.874,13.874c3.257,0,6.25-1.135,8.62-3.021l6.811,6.812
		C29.61,31.847,30.016,32,30.419,32c0.405,0,0.811-0.153,1.119-0.462C32.155,30.919,32.155,29.92,31.538,29.303z M3.158,13.874
		c0-5.907,4.807-10.714,10.716-10.714c5.908,0,10.714,4.807,10.714,10.714c0,5.909-4.807,10.714-10.714,10.714
		C7.964,24.588,3.158,19.783,3.158,13.874z"/>
</g>
</svg>
