<?xml version="1.0" encoding="utf-8"?>
<!-- Generator: Adobe Illustrator 16.0.0, SVG Export Plug-In . SVG Version: 6.00 Build 0)  -->
<!DOCTYPE svg PUBLIC "-//W3C//DTD SVG 1.1//EN" "http://www.w3.org/Graphics/SVG/1.1/DTD/svg11.dtd">
<svg version="1.1" id="Layer_1" xmlns="http://www.w3.org/2000/svg" xmlns:xlink="http://www.w3.org/1999/xlink" x="0px" y="0px"
	 width="32px" height="32px" viewBox="0 0 32 32" enable-background="new 0 0 32 32" xml:space="preserve">
<path fill="#231F20" d="M29.145,15.473c-0.932,0-1.688,0.755-1.688,1.689c0,6.318-5.141,11.458-11.458,11.458
	c-6.316,0-11.459-5.14-11.459-11.458C4.541,10.844,9.683,5.705,16,5.705c2.368,0,4.612,0.729,6.518,2.053l-3.42,0.002
	c-0.932,0-1.691,0.757-1.689,1.691c0,0.933,0.758,1.688,1.689,1.688H19.1l9.445-0.006V1.69c0-0.933-0.756-1.69-1.689-1.69
	s-1.688,0.756-1.688,1.69l-0.004,3.816c-2.605-2.055-5.797-3.18-9.165-3.18c-8.182,0-14.836,6.655-14.836,14.836
	C1.164,25.345,7.818,32,16,32c8.18,0,14.836-6.655,14.836-14.838C30.836,16.228,30.082,15.473,29.145,15.473z"/>
</svg>
